<svg width="100" height="100" viewBox="0 0 100 100" fill="none" xmlns="http://www.w3.org/2000/svg">
<path d="M80.207 35.2971C79.2083 34.956 78.2025 34.6382 77.1895 34.344C77.3574 33.6604 77.5124 32.9729 77.6543 32.2815C79.9395 21.1682 78.4453 12.2151 73.3457 9.2678C68.4629 6.43968 60.4551 9.38694 52.377 16.4338C51.5827 17.1291 50.8047 17.8453 50.043 18.5823C49.5352 18.0927 49.0143 17.6135 48.4805 17.1448C40.0137 9.6096 31.5273 6.43577 26.4336 9.3928C21.5508 12.2268 20.0996 20.6428 22.1563 31.176C22.362 32.2177 22.5931 33.2548 22.8496 34.2873C21.6484 34.6291 20.4883 34.9944 19.3789 35.3811C9.46484 38.8479 3.125 44.2834 3.125 49.9201C3.125 55.7444 9.92969 61.5842 20.2676 65.1252C21.1061 65.4104 21.9525 65.6754 22.8066 65.9202C22.5293 67.0256 22.2839 68.1435 22.0703 69.2737C20.1172 79.6252 21.6406 87.842 26.5137 90.6584C31.5469 93.5666 39.9902 90.5783 48.2207 83.3713C48.8717 82.801 49.5228 82.1988 50.1738 81.5647C50.9967 82.3602 51.8431 83.1324 52.7129 83.8811C60.6816 90.7522 68.5508 93.5276 73.416 90.7034C78.4453 87.7854 80.0801 78.9573 77.957 68.217C77.7943 67.3967 77.6068 66.5595 77.3945 65.7053C77.9883 65.5295 78.5697 65.3479 79.1387 65.1604C89.8809 61.592 96.8789 55.8225 96.8789 49.926C96.875 44.2619 90.332 38.7912 80.207 35.2971ZM55.0117 19.4612C61.9316 13.4241 68.4004 11.0412 71.3496 12.7444C74.4883 14.5588 75.709 21.8752 73.7363 31.4709C73.6061 32.0959 73.4655 32.719 73.3145 33.3401C69.1848 32.4008 64.9971 31.7378 60.7793 31.3557C58.3643 27.8769 55.717 24.5654 52.8555 21.4436C53.556 20.7639 54.2734 20.1031 55.0078 19.4612H55.0117ZM30.8066 54.7366C31.6543 56.3772 32.5404 57.9976 33.4648 59.5979C34.4062 61.2307 35.3874 62.8394 36.4082 64.4241C33.506 64.1085 30.622 63.6437 27.7676 63.0315C28.5957 60.3518 29.6152 57.5686 30.8066 54.7366ZM30.8066 45.2971C29.6348 42.5256 28.6426 39.7991 27.8281 37.1662C30.5039 36.5666 33.3555 36.0764 36.3281 35.7053C35.332 37.26 34.3737 38.8375 33.4531 40.4377C32.5326 42.038 31.6484 43.6578 30.8008 45.2971H30.8066ZM32.9355 50.0178C34.1699 47.4436 35.4993 44.9188 36.9238 42.4436C38.347 39.9696 39.862 37.5523 41.4688 35.1916C44.2578 34.9807 47.1172 34.8694 50.0059 34.8694C52.8945 34.8694 55.7715 34.9807 58.5586 35.1936C60.1484 37.5491 61.6543 39.9579 63.0762 42.4201C64.498 44.8824 65.8451 47.3954 67.1172 49.9592C65.862 52.5425 64.5182 55.0777 63.0859 57.5647C61.6654 60.0386 60.168 62.4631 58.5938 64.8381C55.8105 65.0334 52.9297 65.1408 50 65.1408C47.0703 65.1408 44.2441 65.0491 41.5117 64.8713C39.8932 62.5028 38.3659 60.0751 36.9297 57.5881C35.4935 55.1011 34.1602 52.5777 32.9297 50.0178H32.9355ZM66.5527 59.5705C67.4967 57.9325 68.403 56.273 69.2715 54.592C70.462 57.2914 71.5129 60.0503 72.4199 62.8576C69.532 63.508 66.612 64.0067 63.6719 64.3518C64.6641 62.7776 65.6243 61.1838 66.5527 59.5705ZM69.2324 45.2991C68.3678 43.6519 67.4688 42.0243 66.5352 40.4162C65.6237 38.8303 64.6738 37.2639 63.6855 35.717C66.6758 36.0959 69.5449 36.5998 72.2344 37.2151C71.3697 39.9583 70.3678 42.6563 69.2324 45.2991ZM50.0449 24.3127C51.9952 26.4438 53.8367 28.6719 55.5625 30.9885C51.8711 30.8127 48.1771 30.8127 44.4805 30.9885C46.3027 28.5784 48.168 26.342 50.0449 24.3127ZM28.4492 12.8635C31.5859 11.0432 38.5215 13.6448 45.832 20.1428C46.2988 20.5588 46.7695 20.9944 47.2383 21.4455C44.362 24.5669 41.696 27.8756 39.2578 31.3498C35.0493 31.729 30.8699 32.3814 26.7461 33.303C26.5078 32.3446 26.293 31.3798 26.1016 30.4084C24.334 21.3791 25.5039 14.5725 28.4492 12.8635ZM23.877 62.053C23.0957 61.8303 22.3242 61.5888 21.5625 61.3284C16.9922 59.7659 13.2168 57.7268 10.625 55.5061C8.30469 53.5158 7.12891 51.5295 7.12891 49.9201C7.12891 46.5002 12.2187 42.1369 20.707 39.178C21.7734 38.8069 22.849 38.4677 23.9336 38.1604C25.1942 42.2117 26.721 46.1754 28.5039 50.0256C26.6997 53.929 25.1541 57.9468 23.877 62.053ZM45.582 80.3479C41.9434 83.5354 38.2988 85.7951 35.0859 86.9338C32.1992 87.9553 29.9004 87.9846 28.5117 87.1819C25.5547 85.4729 24.3242 78.8733 26.002 70.0217C26.2012 68.98 26.429 67.9384 26.6855 66.8967C30.8507 67.7939 35.072 68.4067 39.3203 68.7307C41.7823 72.2231 44.4704 75.5505 47.3672 78.6916C46.7852 79.2639 46.1895 79.8147 45.582 80.3479ZM50.1562 75.8127C48.2578 73.76 46.3633 71.4885 44.5156 69.0471C46.3112 69.1174 48.1393 69.1526 50 69.1526C51.9102 69.1526 53.8008 69.1116 55.6641 69.0276C53.9446 71.3814 52.1062 73.646 50.1562 75.8127ZM74.4766 81.3967C73.918 84.4123 72.7949 86.4241 71.4063 87.2287C68.4512 88.9436 62.1328 86.7151 55.3203 80.8381C54.5391 80.1662 53.7578 79.4455 52.9629 78.6897C55.8033 75.5363 58.4284 72.1954 60.8203 68.6897C65.0921 68.3277 69.334 67.6719 73.5156 66.7268C73.707 67.5002 73.8763 68.258 74.0234 69.0002C74.9629 73.7463 75.0977 78.0393 74.4766 81.3967ZM77.875 61.3498C77.3633 61.5198 76.8359 61.6838 76.3008 61.844C74.9896 57.7736 73.4032 53.7969 71.5527 49.9416C73.3338 46.1377 74.8581 42.2188 76.1152 38.2112C77.0742 38.4905 78.0059 38.7834 78.9023 39.094C87.5781 42.0862 92.8711 46.5158 92.8711 49.9201C92.8711 53.553 87.1543 58.2678 77.875 61.3498Z" fill="black"/>
<path d="M50 58.3105C51.6622 58.3159 53.2887 57.828 54.6734 56.9084C56.0581 55.9889 57.1388 54.6791 57.7786 53.145C58.4185 51.6109 58.5887 49.9214 58.2677 48.2904C57.9468 46.6595 57.1491 45.1605 55.9756 43.9832C54.8022 42.8059 53.3058 42.0033 51.6759 41.6771C50.046 41.3508 48.356 41.5155 46.8198 42.1503C45.2836 42.7852 43.9703 43.8616 43.0462 45.2433C42.1222 46.625 41.6289 48.2499 41.6289 49.9121C41.6266 51.0133 41.8414 52.1042 42.2609 53.1224C42.6804 54.1406 43.2965 55.0662 44.0739 55.8461C44.8514 56.6261 45.7749 57.2452 46.7917 57.6681C47.8086 58.0909 48.8988 58.3092 50 58.3105Z" fill="black"/>
</svg>
